<?xml version="1.0" standalone="no"?>
<!DOCTYPE svg PUBLIC "-//W3C//DTD SVG 20010904//EN"
 "http://www.w3.org/TR/2001/REC-SVG-20010904/DTD/svg10.dtd">
<svg version="1.0" xmlns="http://www.w3.org/2000/svg"
 width="512.000000pt" height="512.000000pt" viewBox="0 0 512.000000 512.000000"
 preserveAspectRatio="xMidYMid meet">
<metadata>
Created by potrace 1.14, written by Peter Selinger 2001-2017
</metadata>
<g transform="translate(0.000000,512.000000) scale(0.100000,-0.100000)"
fill="#000000" stroke="none">
<path d="M357 4719 c-65 -22 -131 -88 -148 -150 -9 -33 -12 -288 -12 -1039 0
-883 4 -1137 18 -1160 2 -3 6 -19 9 -34 12 -64 41 -147 81 -231 203 -423 653
-673 1115 -620 256 29 473 135 656 319 215 217 318 464 318 761 0 271 -80 497
-246 695 -175 210 -377 329 -653 386 -242 50 -553 -9 -776 -146 l-49 -30 0
523 c0 574 -1 588 -59 658 -59 71 -163 99 -254 68z m1081 -1543 c184 -40 358
-182 433 -353 43 -99 54 -155 52 -273 -3 -224 -154 -450 -361 -543 -97 -43
-171 -56 -287 -53 -173 5 -295 57 -416 176 -137 136 -192 272 -185 464 6 178
63 304 193 425 91 86 190 136 328 165 45 9 184 4 243 -8z"/>
<path d="M3765 3662 c-163 -14 -307 -53 -436 -117 -299 -151 -521 -445 -583
-772 -19 -103 -19 -317 0 -408 9 -38 17 -78 19 -88 2 -10 14 -46 26 -80 91
-258 295 -489 542 -614 85 -43 226 -89 298 -98 30 -4 57 -9 61 -11 10 -6 239
-6 268 0 13 3 42 8 64 12 99 14 305 97 388 155 14 11 29 19 32 19 3 0 6 -58 6
-129 0 -104 -4 -144 -23 -207 -80 -279 -319 -463 -599 -464 -236 0 -430 115
-554 331 -50 87 -97 128 -164 145 -162 41 -316 -92 -295 -256 16 -125 201
-369 375 -492 118 -84 297 -160 430 -182 19 -3 46 -8 60 -11 31 -7 247 -7 276
-1 12 2 39 7 60 10 142 22 336 106 456 196 133 101 267 259 335 395 54 108 96
252 109 375 10 89 11 1184 1 1294 -35 412 -310 777 -698 926 -136 52 -331 83
-454 72z m185 -482 c217 -49 409 -220 470 -420 21 -69 21 -69 27 -170 7 -116
-9 -189 -68 -308 -75 -154 -234 -281 -409 -327 -78 -21 -267 -14 -336 13 -223
85 -367 243 -419 459 -17 70 -17 210 -1 283 8 37 47 128 75 180 30 55 140 167
201 205 53 33 149 73 205 85 57 11 202 11 255 0z"/>
</g>
</svg>
